Coordinates
version=1
nRows=7
nColumns=40
inDegrees=yes

Units are S.I. units (second, meters, Newtons, ...)
Angles are in degrees.

endheader
time	pelvis_tilt	pelvis_list	pelvis_rotation	pelvis_tx	pelvis_ty	pelvis_tz	hip_flexion_r	hip_adduction_r	hip_rotation_r	knee_angle_r	knee_angle_r_beta	ankle_angle_r	subtalar_angle_r	mtp_angle_r	hip_flexion_l	hip_adduction_l	hip_rotation_l	knee_angle_l	knee_angle_l_beta	ankle_angle_l	subtalar_angle_l	mtp_angle_l	lumbar_extension	lumbar_bending	lumbar_rotation	arm_flex_r	arm_add_r	arm_rot_r	elbow_flex_r	pro_sup_r	wrist_flex_r	wrist_dev_r	arm_flex_l	arm_add_l	arm_rot_l	elbow_flex_l	pro_sup_l	wrist_flex_l	wrist_dev_l
      5.46142857	     -3.57460792	     -3.07880750	     -0.85414958	      0.92386500	      0.91921170	      0.47996127	     28.18015477	     -2.31371384	    -14.50379043	     13.25411679	     13.25411679	      1.71228127	      1.83468804	     10.44838529	     -3.89802715	     -3.08065735	    -10.31965031	     12.92968494	     12.92968494	     20.49441321	      1.62686099	     -4.54468934	    -11.38932925	      5.39448467	      0.75613909	    -21.72465532	    -10.98875847	     -4.95814750	     29.03390545	     46.32559033	      0.00000000	      0.00000000	     22.72065160	    -20.17718203	     -5.85525683	    107.92541701	     48.20315838	      0.00000000	      0.00000000
      5.47285714	     -3.45365676	     -3.15422267	     -0.80589243	      0.92625375	      0.91773322	      0.48190419	     27.73196440	     -1.90993549	    -14.53425256	     13.52310818	     13.52310818	      0.63767098	      1.30300469	      7.52216553	     -4.52011956	     -3.51090583	    -11.12769282	     13.52074293	     13.52074293	     21.45553813	      3.11558905	     -4.23246730	    -11.11014304	      5.38024984	      0.66276720	    -21.91069632	    -11.02474439	     -4.77809326	     29.16863203	     46.29300163	      0.00000000	      0.00000000	     22.52412282	    -20.35840173	     -5.64400100	    108.39459337	     48.25905582	      0.00000000	      0.00000000
      5.48428571	     -3.31164214	     -3.25935570	     -0.72179163	      0.92871507	      0.91659103	      0.48376487	     27.38444064	     -1.60293310	    -14.63874433	     14.37998079	     14.37998079	      0.54241945	      0.94909778	      7.10073644	     -5.32298604	     -3.81033591	    -11.06985962	     13.71206210	     13.71206210	     21.80635882	      3.18783487	     -4.29501632	    -10.85502884	      5.46034716	      0.66971674	    -21.86901608	    -11.03597003	     -4.75375008	     29.14613167	     46.29168478	      0.00000000	      0.00000000	     22.30021243	    -20.20005431	     -5.55878011	    108.42313396	     48.25831781	      0.00000000	      0.00000000
      5.49571429	     -3.25296141	     -3.24598972	     -0.68367984	      0.93113632	      0.91536825	      0.48592250	     27.30645100	     -1.43438081	    -14.37351455	     15.70262384	     15.70262384	      0.35598851	      0.20325158	      5.82971311	     -5.91536262	     -4.08502542	    -11.37441239	     14.15396614	     14.15396614	     22.23953467	      3.81954158	     -4.37179725	    -10.53747620	      5.29953867	      0.64001709	    -21.67071843	    -11.04318089	     -4.67784427	     29.09483668	     46.28825209	      0.00000000	      0.00000000	     22.02473394	    -20.16283053	     -5.48270666	    108.53600472	     48.26637581	      0.00000000	      0.00000000
      5.50714286	     -3.15687627	     -3.37458464	     -0.55657064	      0.93361116	      0.91446606	      0.48811424	     27.08149856	     -1.15723439	    -14.15803555	     16.93740162	     16.93740162	      0.15914982	     -0.60728688	      4.43988334	     -6.42178461	     -4.58389467	    -11.68845879	     14.82595684	     14.82595684	     22.65775342	      4.51703771	     -4.46188877	    -10.28664314	      5.34856588	      0.55941793	    -21.21834751	    -11.05706657	     -4.57419692	     29.07316414	     46.28397492	      0.00000000	      0.00000000	     21.48807541	    -20.07592311	     -5.37196271	    108.45799365	     48.26692044	      0.00000000	      0.00000000
      5.51857143	     -3.03190498	     -3.54160991	     -0.39895027	      0.93619781	      0.91380530	      0.49044178	     26.54346086	     -0.75860751	    -13.79264532	     17.55900934	     17.55900934	     -1.43669629	     -2.12761911	     -0.85387121	     -6.76397821	     -5.30514964	    -12.57269834	     15.96300921	     15.96300921	     23.57196004	      6.17134715	     -3.71565106	    -10.05474247	      5.43043015	      0.18237708	    -20.21179008	    -11.16275726	     -3.66679664	     28.47172619	     46.24138709	      0.00000000	      0.00000000	     20.52026194	    -20.03055645	     -5.64917360	    108.58993440	     48.37201657	      0.00000000	      0.00000000
      5.53000000	     -2.85073514	     -3.69255771	     -0.21174026	      0.93864478	      0.91376059	      0.49257697	     26.14272173	     -0.55457115	    -13.70758997	     18.71371093	     18.71371093	     -0.99054044	     -2.56049097	     -1.24342380	     -7.25499851	     -5.80592943	    -12.47412903	     16.73236178	     16.73236178	     23.56111158	      6.14377608	     -3.90163302	     -9.98176718	      5.54131638	      0.20486598	    -19.51929272	    -11.20909834	     -3.63293975	     28.68122748	     46.23579145	      0.00000000	      0.00000000	     19.80463638	    -19.70191085	     -5.40653882	    108.18214042	     48.34900148	      0.00000000	      0.00000000
